<?xml version="1.0" standalone="no"?>
<!DOCTYPE svg PUBLIC "-//W3C//DTD SVG 1.1//EN" "http://www.w3.org/Graphics/SVG/1.1/DTD/svg11.dtd">
<svg xmlns="http://www.w3.org/2000/svg" xmlns:xlink="http://www.w3.org/1999/xlink" xmlns:svgjs="http://svgjs.dev/svgjs" version="1.1" width="2000" height="292" viewBox="0 0 2000 292"><g transform="matrix(1,0,0,1,-1.2121212121212466,-0.33281131246374684)"><svg xmlns="http://www.w3.org/2000/svg" xmlns:xlink="http://www.w3.org/1999/xlink" viewBox="0 0 396 58" data-background-color="#000000" preserveAspectRatio="xMidYMid meet" height="292" width="2000"><g id="tight-bounds" transform="matrix(1,0,0,1,0.2400000000000091,0.06610635658526576)"><svg viewBox="0 0 395.52 57.86778728682949" height="57.86778728682949" width="395.52"><g><svg viewBox="0 0 499.31574247551174 73.05394714436248" height="57.86778728682949" width="395.52"><g transform="matrix(1,0,0,1,103.79574247551176,10.096457239199157)"><svg viewBox="0 0 395.52 52.86103266596417" height="52.86103266596417" width="395.52"><g id="textblocktransform"><svg viewBox="0 0 395.52 52.86103266596417" height="52.86103266596417" width="395.52" id="textblock"><g><svg viewBox="0 0 395.52 52.86103266596417" height="52.86103266596417" width="395.52"><g transform="matrix(1,0,0,1,0,0)"><svg width="395.52" viewBox="2.85 -37.6 284.67999999999995 38.050000000000004" height="52.86103266596417" data-palette-color="#3c82f5"><g class="wordmark-text-0" data-fill-palette-color="primary" id="text-0"><path d="M18.95 0.3L18.95 0.3Q10.75 0.3 6.8-4.03 2.85-8.35 2.85-17.5L2.85-17.5Q2.85-26.45 6.95-30.88 11.05-35.3 19.05-35.3L19.05-35.3Q20.75-35.3 22.35-35.05 23.95-34.8 25.25-34.4 26.55-34 27.4-33.5L27.4-33.5Q27.95-33.15 28.28-32.83 28.6-32.5 28.6-32.2L28.6-32.2Q28.6-31.9 28.48-31.48 28.35-31.05 28.13-30.63 27.9-30.2 27.63-29.93 27.35-29.65 27.05-29.65L27.05-29.65Q26.65-29.65 25.68-30.13 24.7-30.6 23.1-31.05 21.5-31.5 19.15-31.5L19.15-31.5Q15.15-31.5 12.55-30.05 9.95-28.6 8.68-25.5 7.4-22.4 7.4-17.45L7.4-17.45Q7.4-12.65 8.65-9.58 9.9-6.5 12.48-5 15.05-3.5 18.95-3.5L18.95-3.5Q20.9-3.5 22.43-3.85 23.95-4.2 25.08-4.63 26.2-5.05 26.9-5.4 27.6-5.75 27.85-5.75L27.85-5.75Q28.15-5.75 28.43-5.45 28.7-5.15 28.9-4.75 29.1-4.35 29.2-3.95 29.3-3.55 29.3-3.35L29.3-3.35Q29.3-2.9 28.88-2.48 28.45-2.05 27.7-1.65L27.7-1.65Q26.8-1.15 25.48-0.7 24.15-0.25 22.5 0.03 20.85 0.3 18.95 0.3ZM45.3 0.3L45.3 0.3Q39.65 0.3 36.67-3.1 33.7-6.5 33.7-12.95L33.7-12.95Q33.7-19.45 36.7-22.95 39.7-26.45 45.3-26.45L45.3-26.45Q50.8-26.45 53.72-22.98 56.65-19.5 56.65-12.95L56.65-12.95Q56.65-6.45 53.77-3.08 50.9 0.3 45.3 0.3ZM45.15-3.3L45.15-3.3Q48.8-3.3 50.52-5.68 52.25-8.05 52.25-13.05L52.25-13.05Q52.25-18.05 50.52-20.45 48.8-22.85 45.15-22.85L45.15-22.85Q41.5-22.85 39.8-20.48 38.1-18.1 38.1-13.05L38.1-13.05Q38.1-8.05 39.8-5.68 41.5-3.3 45.15-3.3ZM71.6 0.3L71.6 0.3Q68.6 0.3 66.47-1.23 64.35-2.75 63.25-5.7 62.15-8.65 62.15-12.9L62.15-12.9Q62.15-16.85 63.27-19.9 64.4-22.95 66.5-24.7 68.6-26.45 71.5-26.45L71.5-26.45Q73.5-26.45 75.47-25.8 77.45-25.15 78.85-24.1L78.85-24.1 78.85-36.5Q78.85-37.05 79.35-37.33 79.85-37.6 80.95-37.6L80.95-37.6 81.15-37.6Q82.2-37.6 82.67-37.33 83.15-37.05 83.15-36.5L83.15-36.5 83.15-7.5Q83.15-5.45 83.27-4.15 83.4-2.85 83.52-2.13 83.65-1.4 83.65-1.05L83.65-1.05Q83.65-0.8 83.35-0.6 83.05-0.4 82.6-0.28 82.15-0.15 81.65-0.08 81.15 0 80.75 0L80.75 0Q80.3 0 80.05-0.33 79.8-0.65 79.6-1.43 79.4-2.2 79.15-3.45L79.15-3.45Q78.15-2.3 76.87-1.45 75.6-0.6 74.25-0.15 72.9 0.3 71.6 0.3ZM72.9-3.4L72.9-3.4Q74.5-3.4 76.12-4.33 77.75-5.25 78.85-6.85L78.85-6.85 78.85-20.05Q77.35-21.4 75.65-22.1 73.95-22.8 72.35-22.8L72.35-22.8Q69.6-22.8 68.07-20.23 66.55-17.65 66.55-12.9L66.55-12.9Q66.55-7.95 68.27-5.68 70-3.4 72.9-3.4ZM102.29 0.3L102.29 0.3Q96.54 0.3 93.47-2.7 90.39-5.7 90.39-12.95L90.39-12.95Q90.39-17.3 91.74-20.3 93.09-23.3 95.72-24.88 98.34-26.45 102.09-26.45L102.09-26.45Q105.49-26.45 107.77-24.98 110.04-23.5 111.17-20.6 112.29-17.7 112.29-13.5L112.29-13.5Q112.29-13.05 112.04-12.55 111.79-12.05 111.39-11.7 110.99-11.35 110.54-11.35L110.54-11.35 94.79-11.35Q94.89-7.2 96.74-5.25 98.59-3.3 102.39-3.3L102.39-3.3Q104.79-3.3 106.47-3.85 108.14-4.4 109.12-4.95 110.09-5.5 110.34-5.5L110.34-5.5Q110.69-5.5 110.97-5.08 111.24-4.65 111.44-4.1 111.64-3.55 111.64-3.15L111.64-3.15Q111.64-2.7 110.92-2.13 110.19-1.55 108.92-0.98 107.64-0.4 105.94-0.05 104.24 0.3 102.29 0.3ZM94.79-14.95L94.79-14.95 107.99-14.95Q107.99-18.9 106.34-20.88 104.69-22.85 101.64-22.85L101.64-22.85Q99.44-22.85 97.94-21.88 96.44-20.9 95.64-19.15 94.84-17.4 94.79-14.95ZM129.54 0L120.99 0Q119.44 0 119.44-1.5L119.44-1.5 119.44-33.5Q119.44-35 120.99-35L120.99-35 129.89-35Q133.64-35 136.12-33.88 138.59-32.75 139.84-30.78 141.09-28.8 141.09-26.15L141.09-26.15Q141.09-24.45 140.32-22.83 139.54-21.2 138.29-20.03 137.04-18.85 135.59-18.45L135.59-18.45 135.59-18.25Q137.79-17.75 139.34-16.6 140.89-15.45 141.74-13.78 142.59-12.1 142.59-10.05L142.59-10.05Q142.59-6.6 141.09-4.38 139.59-2.15 136.67-1.07 133.74 0 129.54 0L129.54 0ZM123.94-16L123.94-3.8 131.14-3.8Q134.39-3.8 136.22-5.45 138.04-7.1 138.04-10L138.04-10Q138.04-12.8 136.09-14.4 134.14-16 130.29-16L130.29-16 123.94-16ZM123.94-31.2L123.94-19.8 129.64-19.8Q132.69-19.8 134.62-21.55 136.54-23.3 136.54-25.75L136.54-25.75Q136.54-28.55 134.87-29.88 133.19-31.2 129.44-31.2L129.44-31.2 123.94-31.2ZM155.74 0.3L155.74 0.3Q152.04 0.3 149.91-1.83 147.79-3.95 147.79-7.65L147.79-7.65 147.79-25.15Q147.79-25.7 148.21-25.98 148.64-26.25 149.74-26.25L149.74-26.25 150.14-26.25Q151.24-26.25 151.66-25.98 152.09-25.7 152.09-25.15L152.09-25.15 152.09-8.05Q152.09-5.75 153.31-4.55 154.54-3.35 156.94-3.35L156.94-3.35Q158.19-3.35 159.36-3.78 160.54-4.2 161.56-5 162.59-5.8 163.29-6.85L163.29-6.85 163.29-25.15Q163.29-25.7 163.71-25.98 164.14-26.25 165.24-26.25L165.24-26.25 165.64-26.25Q166.74-26.25 167.16-25.98 167.59-25.7 167.59-25.15L167.59-25.15 167.59-7.5Q167.59-5.45 167.71-4.15 167.84-2.85 167.96-2.13 168.09-1.4 168.09-1.05L168.09-1.05Q168.09-0.8 167.79-0.6 167.49-0.4 167.04-0.28 166.59-0.15 166.09-0.08 165.59 0 165.19 0L165.19 0Q164.74 0 164.49-0.33 164.24-0.65 164.04-1.43 163.84-2.2 163.59-3.45L163.59-3.45Q162.59-2.3 161.29-1.45 159.99-0.6 158.59-0.15 157.19 0.3 155.74 0.3ZM184.28 0.3L184.28 0.3Q181.28 0.3 179.16-1.23 177.03-2.75 175.94-5.7 174.84-8.65 174.84-12.9L174.84-12.9Q174.84-16.85 175.96-19.9 177.09-22.95 179.19-24.7 181.28-26.45 184.19-26.45L184.19-26.45Q186.19-26.45 188.16-25.8 190.14-25.15 191.54-24.1L191.54-24.1 191.54-36.5Q191.54-37.05 192.04-37.33 192.54-37.6 193.64-37.6L193.64-37.6 193.84-37.6Q194.89-37.6 195.36-37.33 195.84-37.05 195.84-36.5L195.84-36.5 195.84-7.5Q195.84-5.45 195.96-4.15 196.09-2.85 196.21-2.13 196.34-1.4 196.34-1.05L196.34-1.05Q196.34-0.8 196.04-0.6 195.74-0.4 195.29-0.28 194.84-0.15 194.34-0.08 193.84 0 193.44 0L193.44 0Q192.99 0 192.74-0.33 192.49-0.65 192.29-1.43 192.09-2.2 191.84-3.45L191.84-3.45Q190.84-2.3 189.56-1.45 188.28-0.6 186.94-0.15 185.59 0.3 184.28 0.3ZM185.59-3.4L185.59-3.4Q187.19-3.4 188.81-4.33 190.44-5.25 191.54-6.85L191.54-6.85 191.54-20.05Q190.03-21.4 188.34-22.1 186.64-22.8 185.03-22.8L185.03-22.8Q182.28-22.8 180.76-20.23 179.24-17.65 179.24-12.9L179.24-12.9Q179.24-7.95 180.96-5.68 182.69-3.4 185.59-3.4ZM212.53 0.3L212.53 0.3Q209.53 0.3 207.41-1.23 205.28-2.75 204.18-5.7 203.08-8.65 203.08-12.9L203.08-12.9Q203.08-16.85 204.21-19.9 205.33-22.95 207.43-24.7 209.53-26.45 212.43-26.45L212.43-26.45Q214.43-26.45 216.41-25.8 218.38-25.15 219.78-24.1L219.78-24.1 219.78-36.5Q219.78-37.05 220.28-37.33 220.78-37.6 221.88-37.6L221.88-37.6 222.08-37.6Q223.13-37.6 223.61-37.33 224.08-37.05 224.08-36.5L224.08-36.5 224.08-7.5Q224.08-5.45 224.21-4.15 224.33-2.85 224.46-2.13 224.58-1.4 224.58-1.05L224.58-1.05Q224.58-0.8 224.28-0.6 223.98-0.4 223.53-0.28 223.08-0.15 222.58-0.08 222.08 0 221.68 0L221.68 0Q221.23 0 220.98-0.33 220.73-0.65 220.53-1.43 220.33-2.2 220.08-3.45L220.08-3.45Q219.08-2.3 217.81-1.45 216.53-0.6 215.18-0.15 213.83 0.3 212.53 0.3ZM213.83-3.4L213.83-3.4Q215.43-3.4 217.06-4.33 218.68-5.25 219.78-6.85L219.78-6.85 219.78-20.05Q218.28-21.4 216.58-22.1 214.88-22.8 213.28-22.8L213.28-22.8Q210.53-22.8 209.01-20.23 207.48-17.65 207.48-12.9L207.48-12.9Q207.48-7.95 209.21-5.68 210.93-3.4 213.83-3.4ZM235.43 0.1L235.03 0.1Q233.93 0.1 233.51-0.2 233.08-0.5 233.08-1L233.08-1 233.08-25.15Q233.08-25.7 233.51-25.98 233.93-26.25 235.03-26.25L235.03-26.25 235.43-26.25Q236.53-26.25 236.96-25.98 237.38-25.7 237.38-25.15L237.38-25.15 237.38-1Q237.38-0.5 236.96-0.2 236.53 0.1 235.43 0.1L235.43 0.1ZM235.23-29.75L235.23-29.75Q234.03-29.75 233.53-30.05 233.03-30.35 233.03-30.85L233.03-30.85 233.03-33.85Q233.03-34.35 233.53-34.65 234.03-34.95 235.23-34.95L235.23-34.95Q236.43-34.95 236.93-34.68 237.43-34.4 237.43-33.85L237.43-33.85 237.43-30.85Q237.43-30.35 236.93-30.05 236.43-29.75 235.23-29.75ZM256.48 0.3L256.48 0.3Q250.73 0.3 247.65-2.7 244.58-5.7 244.58-12.95L244.58-12.95Q244.58-17.3 245.93-20.3 247.28-23.3 249.9-24.88 252.53-26.45 256.28-26.45L256.28-26.45Q259.68-26.45 261.95-24.98 264.23-23.5 265.35-20.6 266.48-17.7 266.48-13.5L266.48-13.5Q266.48-13.05 266.23-12.55 265.98-12.05 265.58-11.7 265.18-11.35 264.73-11.35L264.73-11.35 248.98-11.35Q249.08-7.2 250.93-5.25 252.78-3.3 256.58-3.3L256.58-3.3Q258.98-3.3 260.65-3.85 262.33-4.4 263.3-4.95 264.28-5.5 264.53-5.5L264.53-5.5Q264.88-5.5 265.15-5.08 265.43-4.65 265.63-4.1 265.83-3.55 265.83-3.15L265.83-3.15Q265.83-2.7 265.1-2.13 264.38-1.55 263.1-0.98 261.83-0.4 260.13-0.05 258.43 0.3 256.48 0.3ZM248.98-14.95L248.98-14.95 262.18-14.95Q262.18-18.9 260.53-20.88 258.88-22.85 255.83-22.85L255.83-22.85Q253.63-22.85 252.13-21.88 250.63-20.9 249.83-19.15 249.03-17.4 248.98-14.95ZM278.68 0.45L278.68 0.45Q276.98 0.45 275.53 0.13 274.08-0.2 273-0.7 271.93-1.2 271.33-1.73 270.73-2.25 270.73-2.7L270.73-2.7Q270.73-3 271.03-3.6 271.33-4.2 271.73-4.7 272.13-5.2 272.48-5.2L272.48-5.2Q272.68-5.2 273.38-4.7 274.08-4.2 275.35-3.7 276.63-3.2 278.38-3.2L278.38-3.2Q280.78-3.2 282.03-4.15 283.28-5.1 283.28-6.9L283.28-6.9Q283.28-8.25 282.63-9.08 281.98-9.9 280.85-10.45 279.73-11 278.28-11.45L278.28-11.45Q276.98-11.9 275.73-12.45 274.48-13 273.48-13.85 272.48-14.7 271.9-16 271.33-17.3 271.33-19.25L271.33-19.25Q271.33-21.35 272.4-23 273.48-24.65 275.35-25.58 277.23-26.5 279.63-26.5L279.63-26.5Q280.93-26.5 282.1-26.33 283.28-26.15 284.2-25.85 285.13-25.55 285.68-25.15 286.23-24.75 286.23-24.35L286.23-24.35Q286.23-23.95 285.95-23.3 285.68-22.65 285.33-22.15 284.98-21.65 284.63-21.65L284.63-21.65Q284.43-21.65 283.28-22.3 282.13-22.95 280.08-22.95L280.08-22.95Q278.23-22.95 276.93-22.08 275.63-21.2 275.63-19.6L275.63-19.6Q275.63-18.65 275.98-18 276.33-17.35 277.18-16.82 278.03-16.3 279.53-15.8L279.53-15.8Q281.23-15.25 282.68-14.55 284.13-13.85 285.23-12.88 286.33-11.9 286.93-10.55 287.53-9.2 287.53-7.35L287.53-7.35Q287.53-5.1 286.35-3.35 285.18-1.6 283.18-0.58 281.18 0.45 278.68 0.45Z" fill="#3c82f5" data-fill-palette-color="primary"/></g></svg></g></svg></g></svg></g></svg></g><g><svg viewBox="0 0 91.31652132786161 73.05394714436248" height="73.05394714436248" width="91.31652132786161"><g><svg xmlns="http://www.w3.org/2000/svg" xmlns:xlink="http://www.w3.org/1999/xlink" version="1.1" x="0" y="0" viewBox="0 10 99.99900062611025 80" enable-background="new 0 0 100 100" xml:space="preserve" height="73.05394714436248" width="91.31652132786161" class="icon-icon-0" data-fill-palette-color="accent" id="icon-0"><path fill="#3c82f5" d="M97.327 10H2.673C1.197 10 0 11.197 0 12.673V25v62.327C0 88.803 1.197 90 2.673 90h94.653c1.476 0 2.673-1.197 2.673-2.673V25 12.673C100 11.197 98.803 10 97.327 10zM95 85H5V30h90V85zM5 25V15h90v10H5z" data-fill-palette-color="accent"/><circle fill="#3c82f5" cx="10" cy="20" r="2.0" data-fill-palette-color="accent"/><circle fill="#3c82f5" cx="17.5" cy="20" r="2.0" data-fill-palette-color="accent"/><circle fill="#3c82f5" cx="25" cy="20" r="2.0" data-fill-palette-color="accent"/><path fill="#3c82f5" d="M32.116 73.384c-0.764 0.764-2.004 0.764-2.768 0L15.61 59.645c-0.909-0.909-0.909-2.382 0-3.29l13.739-13.739c0.764-0.764 2.004-0.764 2.768 0l0.643 0.643c0.833 0.833 0.833 2.184 0 3.018L21.143 57.893c-0.059 0.059-0.059 0.155 0 0.214l11.741 11.741c0.764 0.764 0.764 2.004 0 2.768L32.116 73.384z" data-fill-palette-color="accent"/><path fill="#3c82f5" d="M68.019 73.384c0.764 0.764 2.004 0.764 2.768 0l13.739-13.739c0.909-0.909 0.909-2.382 0-3.29L70.787 42.616c-0.764-0.764-2.004-0.764-2.768 0l-0.643 0.643c-0.833 0.833-0.833 2.184 0 3.018l11.616 11.616c0.059 0.059 0.059 0.155 0 0.214L67.251 69.848c-0.764 0.764-0.764 2.004 0 2.768L68.019 73.384z" data-fill-palette-color="accent"/><path fill="#3c82f5" d="M61.388 41.954c-0.137-0.501-0.467-0.927-0.917-1.184l-0.943-0.539c-0.938-0.536-2.134-0.21-2.67 0.728L38.8 72.56c-0.258 0.451-0.325 0.985-0.189 1.486 0.137 0.501 0.467 0.927 0.917 1.184l0.943 0.539c0.938 0.536 2.134 0.21 2.67-0.728L61.2 43.44C61.457 42.989 61.525 42.454 61.388 41.954z" data-fill-palette-color="accent"/></svg></g></svg></g></svg></g><defs/></svg><rect width="395.52" height="57.86778728682949" fill="none" stroke="none" visibility="hidden"/></g></svg></g></svg>